<svg width="31" height="25" viewBox="0 0 31 25" fill="none" xmlns="http://www.w3.org/2000/svg">
    <g clip-path="url(#clip0_4129_56599)">
    <path d="M15.2877 13.1401V12.7457L13.2692 14.2739C12.5161 14.844 11.4401 14.6945 10.8709 13.9402C10.3016 13.1859 10.4509 12.1082 11.204 11.5381L13.2235 10.0089H12.9594L13.132 9.47801H12.4536L12.1876 9.27051L10.4724 10.5688C9.1855 11.5427 8.93074 13.3841 9.90313 14.673C10.3893 15.317 11.092 15.703 11.8339 15.8068C12.5758 15.9096 13.3569 15.7301 14.0008 15.2431L16.0371 13.7018L16.0277 13.1981L15.2886 13.1392L15.2877 13.1401Z" fill="black"/>
    <path d="M19.4455 8.19279C19.0274 7.53196 18.377 7.07303 17.6146 6.90199C16.8521 6.73094 16.0692 6.8674 15.4085 7.28614L13.418 8.54984L13.6242 8.74051L14.3969 8.80407L14.1813 9.31908L14.4398 9.34058L16.058 8.31336C16.4443 8.06847 16.9025 7.98809 17.3486 8.0881C17.7947 8.18811 18.1754 8.45637 18.4199 8.84333C18.6644 9.23029 18.7447 9.68922 18.6448 10.136C18.545 10.5828 18.2771 10.9641 17.8908 11.209L16.239 12.2577L16.2082 12.6353L16.9389 12.754L16.9063 13.2737L18.5412 12.2362C19.201 11.8175 19.6592 11.166 19.83 10.4024C20.0008 9.63874 19.8645 8.85454 19.4464 8.19279H19.4455Z" fill="black"/>
    <path d="M2.92419 25.0002C2.17482 25.0002 1.4264 24.7151 0.855279 24.1431C-0.285093 23.0009 -0.285093 21.1418 0.855279 19.9996L4.11028 16.7395C5.25066 15.5973 7.10679 15.5973 8.24716 16.7395C9.38754 17.8816 9.38754 19.7407 8.24716 20.8829L4.99216 24.1431C4.42197 24.7142 3.67261 25.0002 2.92325 25.0002H2.92419ZM6.17919 17.0984C5.74059 17.0984 5.30198 17.2657 4.96883 17.6003L1.71382 20.8605C1.04658 21.5288 1.04658 22.6167 1.71382 23.286C2.38106 23.9543 3.46731 23.9543 4.13548 23.286L7.39048 20.0267C8.05772 19.3584 8.05772 18.2705 7.39048 17.6012C7.0564 17.2666 6.61873 17.0993 6.18012 17.0993L6.17919 17.0984Z" fill="black"/>
    <path d="M24.0928 8.16769C23.839 8.16769 23.5833 8.13405 23.3313 8.06675C22.5763 7.86392 21.9455 7.37975 21.5554 6.70211C20.7491 5.30289 21.2288 3.50736 22.6258 2.69979L26.6115 0.39486C27.2881 0.0032274 28.0766 -0.100523 28.8316 0.102304C29.5865 0.30513 30.2174 0.789297 30.6075 1.46788C30.9975 2.14646 31.1021 2.93533 30.8996 3.69149C30.6971 4.44765 30.2137 5.0795 29.5361 5.4702L25.5504 7.77513C25.0997 8.0359 24.5995 8.16863 24.0928 8.16863V8.16769ZM28.072 1.21738C27.7817 1.21738 27.4878 1.29122 27.219 1.44638L23.2333 3.75131C22.4158 4.22426 22.1349 5.27485 22.6071 6.09363C23.0793 6.91241 24.1282 7.19375 24.9457 6.7208L28.9314 4.41587C29.7489 3.94292 30.0298 2.89234 29.5585 2.07355C29.2422 1.52396 28.6645 1.21645 28.0729 1.21645L28.072 1.21738Z" fill="black"/>
    <path d="M6.23893 19.3231C6.08309 19.3231 5.92724 19.2633 5.80873 19.1437C5.57263 18.9053 5.57449 18.5212 5.81246 18.2847L11.6664 12.4672C11.9044 12.2307 12.2879 12.2326 12.524 12.4709C12.7601 12.7093 12.7583 13.0934 12.5203 13.3299L6.66634 19.1474C6.54782 19.2652 6.39384 19.3241 6.23893 19.3241V19.3231Z" fill="black"/>
    <path d="M17.123 10.2524C16.9205 10.2524 16.7217 10.1505 16.6069 9.96541C16.4305 9.68033 16.5173 9.30552 16.8019 9.12886L23.8 4.77697C24.0846 4.60032 24.4589 4.68724 24.6352 4.97232C24.8116 5.2574 24.7248 5.63221 24.4402 5.80887L17.4421 10.1608C17.3423 10.2224 17.2322 10.2524 17.123 10.2524Z" fill="black"/>
    <path d="M18.2617 14.5625L19.0867 15.6654L19.7474 14.5625H18.2617Z" fill="black"/>
    <path d="M17.6001 15.0225L18.0957 15.4262L17.5273 15.6655L17.6001 15.0225Z" fill="black"/>
    <path d="M15.4977 15.6655L16.3898 15.0225V16.8414L15.3008 16.7498L15.4977 15.6655Z" fill="black"/>
    <path d="M10.5039 8.73825H11.0358L10.8884 8.04004L10.5039 8.73825Z" fill="black"/>
    <path d="M10.3359 7.17687L11.5827 8.04052V6.95067L11.033 6.11133L10.3359 7.17687Z" fill="black"/>
    <path d="M12.2461 6.47852L12.5214 7.7095L13.2922 6.47852H12.2461Z" fill="black"/>
    </g>
    <defs>
    <clipPath id="clip0_4129_56599">
    <rect width="31" height="25" fill="white"/>
    </clipPath>
    </defs>
    </svg>
    