<svg width="308" height="296" viewBox="0 0 308 296" fill="none" xmlns="http://www.w3.org/2000/svg">
    <g clip-path="url(#clip0_5109_65182)">
    <path d="M147.779 283.02C222.564 283.02 283.189 222.395 283.189 147.61C283.189 72.8253 222.564 12.2002 147.779 12.2002C72.9943 12.2002 12.3691 72.8253 12.3691 147.61C12.3691 222.395 72.9943 283.02 147.779 283.02Z" fill="white"/>
    <path d="M160.8 26.8597C160.68 26.8597 160.56 26.8697 160.44 26.8797C158.75 24.6397 156.03 23.1797 152.95 23.1797C149.87 23.1797 147.16 24.6397 145.46 26.8797C145.34 26.8797 145.22 26.8597 145.1 26.8597C140.77 26.8597 137.25 30.2797 137.25 34.4997C137.25 38.7197 140.76 42.1397 145.1 42.1397C146.8 42.1397 148.37 41.6097 149.65 40.7097C150.67 41.0897 151.78 41.2997 152.94 41.2997C154.1 41.2997 155.21 41.0797 156.23 40.7097C157.52 41.5997 159.08 42.1397 160.78 42.1397C165.11 42.1397 168.63 38.7197 168.63 34.4997C168.63 30.2797 165.12 26.8597 160.78 26.8597H160.8Z" fill="url(#paint0_linear_5109_65182)"/>
    <path d="M147.78 294.81C228.982 294.81 294.81 228.982 294.81 147.78C294.81 66.5776 228.982 0.75 147.78 0.75C66.5776 0.75 0.75 66.5776 0.75 147.78C0.75 228.982 66.5776 294.81 147.78 294.81Z" stroke="#0076BA" stroke-width="1.5" stroke-miterlimit="10"/>
    <path d="M198.1 93.1002L196.76 87.6302C195.32 81.7802 194.09 75.8802 193.41 69.9002C190.95 48.3502 173.78 31.6602 152.96 31.6602C132.14 31.6602 114.97 48.3502 112.51 69.9002C111.83 75.8802 110.6 81.7902 109.16 87.6302L107.82 93.1002C104.97 104.7 113.75 115.9 125.69 115.9H138.33C142.87 117.77 147.8 118.8 152.96 118.8C158.12 118.8 163.05 117.76 167.59 115.9H180.23C192.17 115.9 200.96 104.7 198.1 93.1002Z" fill="url(#paint1_linear_5109_65182)"/>
    <path d="M196.561 259.37L198.501 286.05" stroke="#0076BA" stroke-width="1.5" stroke-miterlimit="10"/>
    <path d="M110.49 259.33L107.33 288.88" stroke="#0076BA" stroke-width="1.5" stroke-miterlimit="10"/>
    <path d="M266.27 171.94C260.62 178.88 252.06 183.35 243.14 184.03C234.22 184.71 225.08 181.57 218.45 175.56C212.06 169.76 208.2 161.75 202.91 154.92C193.45 142.71 184.15 135.18 176.36 131.15C171.17 128.47 166.36 127.76 162.57 127.26C159.72 126.88 156.67 126.67 153.43 126.67C149.53 126.67 145.9 126.97 142.54 127.51C136.6 128.46 128.04 132.44 124.64 135.43C115.8 143.22 112.28 149.89 110.27 155.32C108.96 158.41 107.89 161.67 107.1 165.07C106.37 166.81 105.44 168.32 103.96 169.6C98.8399 174.02 93.2899 171.78 85.5299 169.65C74.6699 166.67 68.1699 172.4 68.1699 172.4C68.1699 172.4 68.1399 178.47 73.2199 177.87C78.2999 177.27 72.3199 179.36 88.4699 189.53C94.0399 193.04 99.8999 193.87 105.46 193.18V222.26C105.46 223.92 105.53 258.06 105.65 259.68C105.65 259.68 138.2 265.3 159.19 265.3C180.18 265.3 200.34 259.68 200.34 259.68C200.46 258.06 200.53 223.92 200.53 222.26V196.01C202.33 197.58 204.2 199.07 206.16 200.43C218.87 209.26 235.98 209.99 250.67 205.1C264.35 200.54 273.66 183.15 273.66 183.15L266.27 171.91V171.94Z" fill="url(#paint2_linear_5109_65182)"/>
    <path d="M164.519 117.26C164.519 111.052 159.487 106.02 153.279 106.02C147.071 106.02 142.039 111.052 142.039 117.26V136.37C142.039 142.577 147.071 147.61 153.279 147.61C159.487 147.61 164.519 142.577 164.519 136.37V117.26Z" fill="#FFDCB8"/>
    <g clip-path="url(#clip1_5109_65182)">
    <path d="M164.48 118H142V135.85H164.48V118Z" fill="url(#paint3_radial_5109_65182)"/>
    </g>
    <path d="M120.171 63.5204C120.791 72.4204 120.781 81.3804 122.101 90.2004C123.421 99.0204 126.191 107.85 131.741 114.78C137.291 121.71 145.961 126.47 154.721 125.63C160.671 125.06 166.221 122 170.531 117.8C174.841 113.6 178.011 108.34 180.531 102.85C185.661 91.6704 188.261 79.3104 188.081 66.9904C188.061 65.8704 188.021 64.7204 187.561 63.7104C187.161 62.8304 186.481 62.1104 185.781 61.4404C178.681 54.5704 169.141 50.5304 159.371 49.5504C149.611 48.5704 139.661 50.5404 130.681 54.5304C126.321 56.4704 119.831 58.8604 120.161 63.5204H120.171Z" fill="#FFDCB8"/>
    <path d="M136.051 86.5797C136.051 86.5797 139.871 80.6197 145.351 85.5597" stroke="#0076BA" stroke-width="1.2" stroke-miterlimit="10"/>
    <path d="M158.59 85.8904C158.59 85.8904 162.88 80.1604 167.17 85.8904" stroke="#0076BA" stroke-width="1.2" stroke-miterlimit="10"/>
    <path d="M152.11 85.4102C152.11 85.4102 152.65 93.6702 151.52 96.8002C150.39 99.9302 155.63 99.9302 156.91 98.4302" stroke="#0076BA" stroke-width="1.2" stroke-miterlimit="10"/>
    <path d="M163.38 103.07C164.02 102.7 164.82 103.22 164.72 103.96C164.33 106.71 162.81 111.69 156.9 112.89C149.57 114.39 146.29 110.16 145.05 107.77C144.72 107.13 145.23 106.39 145.95 106.47C148.05 106.71 152.01 106.94 156.06 105.93C159.55 105.06 161.97 103.89 163.38 103.07V103.07Z" stroke="#0076BA" stroke-width="1.2" stroke-miterlimit="10"/>
    <path d="M140.899 89.81C142.158 89.81 143.179 88.7892 143.179 87.53C143.179 86.2708 142.158 85.25 140.899 85.25C139.64 85.25 138.619 86.2708 138.619 87.53C138.619 88.7892 139.64 89.81 140.899 89.81Z" fill="#0076BA"/>
    <path d="M162.93 89.81C164.19 89.81 165.21 88.7892 165.21 87.53C165.21 86.2708 164.19 85.25 162.93 85.25C161.671 85.25 160.65 86.2708 160.65 87.53C160.65 88.7892 161.671 89.81 162.93 89.81Z" fill="#0076BA"/>
    <path d="M268.301 170.2C262.651 177.14 254.091 181.61 245.171 182.29C236.251 182.97 227.111 179.83 220.481 173.82C214.091 168.02 210.491 159.8 204.941 153.18C195.291 141.68 189.331 135.88 179.421 130.37C175.261 128.06 170.491 126.62 166.811 125.9V137.06C166.811 144.54 160.751 150.6 153.271 150.6C145.791 150.6 139.731 144.54 139.731 137.06V127.06C134.701 128.83 129.311 131.86 126.611 134.38C118.001 142.43 114.311 148.14 112.311 153.58C111.001 156.67 109.931 159.93 109.141 163.33C108.411 165.07 107.481 166.58 106.001 167.86C100.881 172.28 95.3309 170.04 87.5709 167.91C76.7109 164.93 70.2109 170.66 70.2109 170.66C70.2109 170.66 70.1809 176.73 75.2609 176.13C80.3409 175.53 74.3609 177.62 90.5109 187.79C96.0809 191.3 101.941 192.13 107.501 191.44V220.52C107.501 222.18 107.571 256.32 107.691 257.94C107.691 257.94 129.881 262.97 159.201 262.31C188.521 261.65 202.381 255.78 202.381 255.78C202.501 254.16 202.571 222.19 202.571 220.53V194.28C204.371 195.85 206.241 197.34 208.201 198.7C220.911 207.53 238.021 208.26 252.711 203.37C266.391 198.81 275.701 181.42 275.701 181.42L268.311 170.18L268.301 170.2Z" stroke="#F9A01C" stroke-width="1.5" stroke-miterlimit="10"/>
    <path d="M273.55 183.14C273.55 183.14 306.89 183.64 307.26 170.55C307.51 161.77 288.21 163.93 288.21 163.93C288.21 163.93 294.81 154.66 287.27 154.07C279.73 153.47 266.24 171.92 266.24 171.92L273.54 183.15L273.55 183.14Z" fill="#FFDCB8"/>
    <path d="M88.9809 260.289L34.9209 263.559L30.3809 188.459L82.7609 185.299C88.9109 184.929 94.1709 189.259 94.5209 194.969L99.0109 268.849C99.0109 268.909 98.9409 268.949 98.9009 268.909L88.9909 260.309L88.9809 260.289Z" stroke="#0076BA" stroke-width="1.5" stroke-miterlimit="10"/>
    <path d="M161.961 255.879L107.641 259.159L99.1206 268.869C99.1206 268.869 99.0006 268.889 99.0006 268.829L94.4606 193.719C94.1606 188.689 98.3006 184.349 103.711 184.019L157.421 180.779L161.961 255.879V255.879Z" stroke="#0076BA" stroke-width="1.5" stroke-miterlimit="10"/>
    <path d="M98.6213 262.68L89.3112 254.34L39.0713 257.37L34.5312 182.27L85.1312 179.21C89.7812 178.93 93.7712 182.47 94.0612 187.12L98.6213 262.68Z" fill="white" stroke="#F9A01C" stroke-width="1.5" stroke-miterlimit="10"/>
    <path d="M157.061 250.25L106.591 253.3L98.6312 262.68L94.0712 187.81C93.7712 182.78 97.6012 178.46 102.631 178.15L152.541 175.14L157.081 250.24L157.061 250.25Z" fill="white" stroke="#F9A01C" stroke-width="1.5" stroke-miterlimit="10"/>
    <path d="M146.221 236.75L109.201 238.99" stroke="#FC9E1C" stroke-width="1.5" stroke-linecap="round" stroke-linejoin="round"/>
    <path d="M145.631 227.03L108.611 229.26" stroke="#FC9E1C" stroke-width="1.5" stroke-linecap="round" stroke-linejoin="round"/>
    <path d="M145.041 217.3L108.021 219.54" stroke="#FC9E1C" stroke-width="1.5" stroke-linecap="round" stroke-linejoin="round"/>
    <path d="M144.452 207.57L107.432 209.81" stroke="#FC9E1C" stroke-width="1.5" stroke-linecap="round" stroke-linejoin="round"/>
    <path d="M143.872 197.851L106.852 200.081" stroke="#FC9E1C" stroke-width="1.5" stroke-linecap="round" stroke-linejoin="round"/>
    <path d="M143.282 188.12L106.262 190.36" stroke="#FC9E1C" stroke-width="1.5" stroke-linecap="round" stroke-linejoin="round"/>
    <path d="M46.2207 193.98L83.2407 191.75" stroke="#FC9E1C" stroke-width="1.5" stroke-linecap="round" stroke-linejoin="round"/>
    <path d="M46.8105 203.71L83.8305 201.47" stroke="#FC9E1C" stroke-width="1.5" stroke-linecap="round" stroke-linejoin="round"/>
    <path d="M47.3906 213.44L84.4106 211.2" stroke="#FC9E1C" stroke-width="1.5" stroke-linecap="round" stroke-linejoin="round"/>
    <path d="M47.9805 223.16L85.0005 220.93" stroke="#FC9E1C" stroke-width="1.5" stroke-linecap="round" stroke-linejoin="round"/>
    <path d="M48.5703 232.89L85.5903 230.65" stroke="#FC9E1C" stroke-width="1.5" stroke-linecap="round" stroke-linejoin="round"/>
    <path d="M49.1504 242.62L86.1804 240.38" stroke="#FC9E1C" stroke-width="1.5" stroke-linecap="round" stroke-linejoin="round"/>
    <path d="M68.1694 172.41C63.7594 172.74 59.6794 174.9 56.9594 178.39C53.5794 182.72 51.5494 188.2 61.4394 189.34C78.5594 191.31 79.1994 179.36 79.1994 179.36C79.1994 179.36 87.2495 182.73 93.1595 181.41C100.189 179.84 89.6894 175.38 83.3794 173.04C80.7294 172.06 77.9094 171.67 75.0894 171.88L68.1595 172.4L68.1694 172.41Z" fill="#FFDCB8"/>
    <path d="M184.23 47.8303C175.68 35.8403 163.5 31.1903 157.03 37.4403C155.97 38.4703 155.14 39.7403 154.51 41.1803C150.06 33.5203 138.49 33.3803 128.54 40.9103C118.52 48.5003 112.28 68.4703 116.66 76.2903C121.04 84.1103 134.38 76.8303 144.4 69.2503C148.9 65.8403 157.7 66.1203 160.79 70.4503C169.34 82.4403 181.52 87.0903 187.99 80.8403C194.46 74.5903 192.78 59.8103 184.23 47.8303Z" fill="url(#paint4_linear_5109_65182)"/>
    <path d="M191.391 88.9352C192.259 85.4235 190.764 82.0329 188.051 81.362C185.338 80.6912 182.435 82.9941 181.567 86.5058C180.698 90.0175 182.193 93.4081 184.906 94.079C187.619 94.7498 190.522 92.4469 191.391 88.9352Z" fill="#FFDCB8"/>
    <path d="M122.144 91.5387C124.761 90.5596 125.855 87.0192 124.588 83.631C123.32 80.2429 120.171 78.29 117.554 79.2691C114.936 80.2482 113.842 83.7886 115.109 87.1768C116.377 90.565 119.526 92.5179 122.144 91.5387Z" fill="#FFDCB8"/>
    <path d="M151.01 112.81C151.01 112.81 154.85 108.43 161.97 110.15" stroke="#0076BA" stroke-width="1.2" stroke-miterlimit="10"/>
    </g>
    <defs>
    <linearGradient id="paint0_linear_5109_65182" x1="137.26" y1="32.6497" x2="168.64" y2="32.6497" gradientUnits="userSpaceOnUse">
    <stop stop-color="#F9A01C"/>
    <stop offset="0.27" stop-color="#F9A833"/>
    <stop offset="0.82" stop-color="#FABD6F"/>
    <stop offset="1" stop-color="#FBC583"/>
    </linearGradient>
    <linearGradient id="paint1_linear_5109_65182" x1="107.26" y1="75.2302" x2="198.64" y2="75.2302" gradientUnits="userSpaceOnUse">
    <stop stop-color="#F9A01C"/>
    <stop offset="0.27" stop-color="#F9A833"/>
    <stop offset="0.82" stop-color="#FABD6F"/>
    <stop offset="1" stop-color="#FBC583"/>
    </linearGradient>
    <linearGradient id="paint2_linear_5109_65182" x1="68.1699" y1="196" x2="273.66" y2="196" gradientUnits="userSpaceOnUse">
    <stop stop-color="#00ADDB"/>
    <stop offset="0.35" stop-color="#009DD1"/>
    <stop offset="1" stop-color="#0076BA"/>
    </linearGradient>
    <radialGradient id="paint3_radial_5109_65182" cx="0" cy="0" r="1" gradientUnits="userSpaceOnUse" gradientTransform="translate(153.17 111.37) scale(24.12)">
    <stop stop-color="#F9A01C"/>
    <stop offset="0.18" stop-color="#F9A833"/>
    <stop offset="0.57" stop-color="#FCC06F"/>
    <stop offset="1" stop-color="#FFDCB8"/>
    </radialGradient>
    <linearGradient id="paint4_linear_5109_65182" x1="115.24" y1="59.1403" x2="191.93" y2="59.1403" gradientUnits="userSpaceOnUse">
    <stop stop-color="#F9A01C"/>
    <stop offset="0.27" stop-color="#F9A833"/>
    <stop offset="0.82" stop-color="#FABD6F"/>
    <stop offset="1" stop-color="#FBC583"/>
    </linearGradient>
    <clipPath id="clip0_5109_65182">
    <rect width="307.26" height="295.57" fill="white"/>
    </clipPath>
    <clipPath id="clip1_5109_65182">
    <rect width="22.48" height="17.85" fill="white" transform="translate(142 118)"/>
    </clipPath>
    </defs>
    </svg>
    