<svg width="152" height="57" viewBox="0 0 152 57" fill="none" xmlns="http://www.w3.org/2000/svg">
    <g clip-path="url(#clip0_4565_60562)">
    <path d="M24.0006 31.5829C31.1822 31.5829 37.0041 25.8853 37.0041 18.8569C37.0041 11.8285 31.1822 6.13086 24.0006 6.13086C16.8189 6.13086 10.9971 11.8285 10.9971 18.8569C10.9971 25.8853 16.8189 31.5829 24.0006 31.5829Z" stroke="url(#paint0_linear_4565_60562)" stroke-width="2" stroke-miterlimit="10"/>
    <path d="M34.253 34.6344C33.5311 34.3024 32.6879 34.3512 32.0126 34.7653C29.6851 36.1814 26.9407 36.9975 24.0002 36.9975C21.0597 36.9975 18.3152 36.1783 15.9877 34.7653C15.3094 34.3542 14.4693 34.3024 13.7474 34.6344C6.28568 38.0664 0.915003 45.1283 0.0126303 53.4966C-0.130505 54.8365 0.961677 55.9998 2.33702 55.9998H45.6634C47.0387 55.9998 48.1309 54.8365 47.9877 53.4966C47.0854 45.1283 41.7147 38.0664 34.253 34.6313V34.6344Z" fill="url(#paint1_linear_4565_60562)"/>
    <path d="M16.8028 10.4429C12.0793 11.9808 11.6188 15.9061 11.2672 21.4606C8.27377 17.4043 8.88988 9.80037 14.3539 6.13086L16.8028 10.4429Z" fill="url(#paint2_linear_4565_60562)"/>
    <path d="M34.9005 4.67839C32.934 2.7538 28.6524 0.0222237 23.3253 1.34995C19.8434 2.21784 12.0892 1.34995 12.0892 1.34995C12.0892 1.34995 11.5944 8.30222 17.5407 10.8907C20.2541 12.0692 23.5835 11.7007 26.4027 10.9546C35.5695 8.83514 36.8329 20.9034 36.8329 20.9034C40.601 13.3025 36.864 6.60298 34.8974 4.67839H34.9005Z" fill="url(#paint3_linear_4565_60562)"/>
    <path d="M26.4985 24.0587C26.4768 24.1166 26.5483 23.9552 26.5172 24.0191C26.4954 24.0618 26.4768 24.1044 26.455 24.144C26.3803 24.2871 26.2901 24.4242 26.1936 24.5521C25.9384 24.884 25.5339 25.2098 25.1107 25.3834C23.9874 25.8402 22.6557 25.5418 21.8778 24.6312C21.7782 24.5125 21.6693 24.3602 21.5822 24.2019C21.551 24.147 21.5262 24.0922 21.495 24.0374C21.4484 23.9491 21.5168 24.0922 21.5013 24.0557C21.3239 23.6019 20.5709 23.7999 20.7514 24.2567C21.6631 26.571 25.0392 27.0431 26.6603 25.1855C26.903 24.9084 27.1146 24.6008 27.2516 24.2567C27.432 23.7999 26.679 23.6019 26.5016 24.0557L26.4985 24.0587Z" fill="url(#paint4_linear_4565_60562)"/>
    <path d="M18.4673 19.9906C18.4673 19.9906 18.4985 19.884 18.5078 19.884C18.5078 19.884 18.458 19.9906 18.5016 19.9022C18.5109 19.8809 18.5202 19.8627 18.5296 19.8413C18.5576 19.7896 18.5856 19.7348 18.6167 19.686C18.6509 19.6312 18.6883 19.5794 18.7256 19.5246C18.763 19.4698 18.6789 19.5734 18.7443 19.5033C18.7692 19.4729 18.7972 19.4455 18.8221 19.415C18.875 19.3602 18.9341 19.3084 18.9932 19.2597C18.9341 19.3084 19.0119 19.2475 19.0337 19.2353C19.0772 19.2079 19.1177 19.1836 19.1644 19.1592C19.183 19.1501 19.2733 19.1105 19.2453 19.1227C19.2204 19.1318 19.3106 19.1013 19.3355 19.0953C19.3853 19.08 19.432 19.0709 19.4817 19.0618C19.4817 19.0618 19.5471 19.0526 19.5066 19.0557C19.4662 19.0618 19.5658 19.0526 19.5751 19.0526C19.6249 19.0526 19.6747 19.0526 19.7213 19.0526C19.74 19.0526 19.8582 19.0648 19.7991 19.0557C19.8987 19.0709 19.992 19.0983 20.0885 19.1288C20.0201 19.1044 20.1383 19.1531 20.1539 19.1592C20.1881 19.1775 20.2223 19.1957 20.2565 19.2171C20.2908 19.2384 20.3219 19.2597 20.353 19.281C20.2877 19.2323 20.3934 19.3176 20.409 19.3328C20.4619 19.3815 20.5117 19.4302 20.5553 19.482C20.5801 19.5094 20.6206 19.5642 20.577 19.5033C20.6019 19.5368 20.6237 19.5673 20.6486 19.6008C20.7171 19.7043 20.7762 19.8139 20.8291 19.9266C20.8633 19.9966 20.7948 19.8322 20.8229 19.9114C20.8291 19.9236 20.8322 19.9388 20.8384 19.951C20.8446 19.9631 20.8477 19.9784 20.854 19.9906C21.0033 20.4565 21.7532 20.2585 21.6039 19.7896C21.4327 19.2475 21.0189 18.7146 20.4899 18.471C20.0387 18.2639 19.5004 18.2213 19.0306 18.3918C18.6198 18.541 18.2962 18.8151 18.0442 19.1623C17.9073 19.3511 17.7952 19.5673 17.7237 19.7865C17.5743 20.2555 18.3242 20.4565 18.4736 19.9875L18.4673 19.9906Z" fill="url(#paint5_linear_4565_60562)"/>
    <path d="M27.1519 19.9906C27.1519 19.9906 27.183 19.884 27.1924 19.884C27.1924 19.884 27.1426 19.9906 27.1861 19.9022C27.1955 19.8809 27.2048 19.8627 27.2142 19.8413C27.2422 19.7896 27.2702 19.7348 27.3013 19.686C27.3355 19.6312 27.3728 19.5794 27.4102 19.5246C27.4475 19.4698 27.3635 19.5734 27.4289 19.5033C27.4537 19.4729 27.4818 19.4455 27.5066 19.415C27.5595 19.3602 27.6187 19.3084 27.6778 19.2597C27.6187 19.3084 27.6965 19.2475 27.7182 19.2353C27.7618 19.2079 27.8022 19.1836 27.8489 19.1592C27.8676 19.1501 27.9578 19.1105 27.9298 19.1227C27.9049 19.1318 27.9952 19.1013 28.0201 19.0953C28.0699 19.08 28.1165 19.0709 28.1663 19.0618C28.1663 19.0618 28.2317 19.0526 28.1912 19.0557C28.1508 19.0618 28.2503 19.0526 28.2597 19.0526C28.3094 19.0526 28.3592 19.0526 28.4059 19.0526C28.4246 19.0526 28.5428 19.0648 28.4837 19.0557C28.5833 19.0709 28.6766 19.0983 28.7731 19.1288C28.7046 19.1044 28.8229 19.1531 28.8384 19.1592C28.8726 19.1775 28.9069 19.1957 28.9411 19.2171C28.9753 19.2384 29.0064 19.2597 29.0376 19.281C28.9722 19.2323 29.078 19.3176 29.0936 19.3328C29.1465 19.3815 29.1963 19.4302 29.2398 19.482C29.2647 19.5094 29.3052 19.5642 29.2616 19.5033C29.2865 19.5368 29.3083 19.5673 29.3332 19.6008C29.4016 19.7043 29.4607 19.8139 29.5136 19.9266C29.5479 19.9966 29.4794 19.8322 29.5074 19.9114C29.5136 19.9236 29.5168 19.9388 29.523 19.951C29.5292 19.9631 29.5323 19.9784 29.5385 19.9906C29.6879 20.4565 30.4378 20.2585 30.2884 19.7896C30.1173 19.2475 29.7035 18.7146 29.1745 18.471C28.7233 18.2639 28.185 18.2213 27.7151 18.3918C27.3044 18.541 26.9808 18.8151 26.7287 19.1623C26.5918 19.3511 26.4798 19.5673 26.4082 19.7865C26.2589 20.2555 27.0088 20.4565 27.1581 19.9875L27.1519 19.9906Z" fill="url(#paint6_linear_4565_60562)"/>
    </g>
    <g clip-path="url(#clip1_4565_60562)">
    <path d="M76.7126 29.3442V28.8235L73.9779 30.8408C72.9575 31.5934 71.4998 31.396 70.7285 30.4003C69.9573 29.4046 70.1596 27.9821 71.1799 27.2295L73.9159 25.211H73.5581L73.792 24.5102H72.8728L72.5125 24.2363L70.1886 25.9501C68.4451 27.2357 68.1 29.6662 69.4174 31.3676C70.0761 32.2177 71.0282 32.7272 72.0333 32.8642C73.0385 32.9999 74.0967 32.763 74.9691 32.1202L77.7279 30.0857L77.7152 29.4207L76.7139 29.343L76.7126 29.3442Z" fill="url(#paint7_linear_4565_60562)"/>
    <path d="M82.348 22.8144C81.7816 21.9421 80.9003 21.3363 79.8674 21.1105C78.8344 20.8848 77.7736 21.0649 76.8785 21.6176L74.1816 23.2857L74.4611 23.5374L75.5079 23.6213L75.2159 24.3011L75.5661 24.3295L77.7584 22.9736C78.2819 22.6503 78.9027 22.5442 79.507 22.6762C80.1114 22.8082 80.6272 23.1623 80.9585 23.6731C81.2897 24.1839 81.3985 24.7897 81.2632 25.3794C81.1279 25.9692 80.765 26.4726 80.2416 26.7958L78.0037 28.1801L77.962 28.6786L78.952 28.8353L78.9077 29.5212L81.1228 28.1517C82.0167 27.599 82.6375 26.7391 82.8689 25.7311C83.1003 24.7231 82.9157 23.6879 82.3493 22.8144H82.348Z" fill="url(#paint8_linear_4565_60562)"/>
    <path d="M59.9608 44.9998C58.9456 44.9998 57.9316 44.6235 57.1578 43.8684C55.6128 42.3607 55.6128 39.9067 57.1578 38.399L61.5678 34.0956C63.1128 32.5879 65.6276 32.5879 67.1726 34.0956C68.7176 35.6033 68.7176 38.0573 67.1726 39.565L62.7626 43.8684C61.9901 44.6222 60.9748 44.9998 59.9596 44.9998H59.9608ZM64.3708 34.5694C63.7766 34.5694 63.1824 34.7902 62.731 35.2319L58.321 39.5354C57.417 40.4175 57.417 41.8536 58.321 42.737C59.225 43.6192 60.6967 43.6192 61.6019 42.737L66.0119 38.4348C66.9159 37.5527 66.9159 36.1165 66.0119 35.2332C65.5593 34.7915 64.9663 34.5706 64.3721 34.5706L64.3708 34.5694Z" fill="url(#paint9_linear_4565_60562)"/>
    <path d="M88.6398 22.781C88.2959 22.781 87.9495 22.7366 87.6081 22.6478C86.5853 22.3801 85.7306 21.741 85.2021 20.8465C84.1097 18.9995 84.7596 16.6294 86.6523 15.5634L92.0523 12.5209C92.9689 12.0039 94.0373 11.867 95.0601 12.1347C96.083 12.4025 96.9377 13.0416 97.4662 13.9373C97.9947 14.833 98.1363 15.8743 97.8619 16.8725C97.5875 17.8706 96.9326 18.7046 96.0147 19.2203L90.6147 22.2629C90.004 22.6071 89.3264 22.7823 88.6398 22.7823V22.781ZM94.031 13.6066C93.6377 13.6066 93.2395 13.7041 92.8754 13.9089L87.4754 16.9514C86.3678 17.5757 85.9872 18.9625 86.627 20.0433C87.2668 21.1241 88.6879 21.4954 89.7954 20.8711L95.1954 17.8286C96.303 17.2043 96.6835 15.8176 96.045 14.7368C95.6164 14.0113 94.8338 13.6054 94.0322 13.6054L94.031 13.6066Z" fill="url(#paint10_linear_4565_60562)"/>
    <path d="M64.4521 37.506C64.2409 37.506 64.0298 37.427 63.8692 37.2691C63.5493 36.9545 63.5518 36.4474 63.8743 36.1353L71.8054 28.4562C72.1278 28.1441 72.6475 28.1465 72.9674 28.4611C73.2872 28.7758 73.2847 29.2828 72.9623 29.595L65.0311 37.2741C64.8705 37.4295 64.6619 37.5072 64.4521 37.5072V37.506Z" fill="url(#paint11_linear_4565_60562)"/>
    <path d="M79.2008 25.5337C78.9264 25.5337 78.6571 25.3993 78.5016 25.155C78.2626 24.7787 78.3802 24.2839 78.7658 24.0507L88.2471 18.3062C88.6327 18.073 89.1397 18.1878 89.3787 18.5641C89.6177 18.9404 89.5001 19.4351 89.1144 19.6683L79.6332 25.4128C79.4979 25.4943 79.3487 25.5337 79.2008 25.5337Z" fill="url(#paint12_linear_4565_60562)"/>
    <path d="M80.7422 31.2227L81.8599 32.6785L82.755 31.2227H80.7422Z" fill="url(#paint13_linear_4565_60562)"/>
    <path d="M79.8467 31.8291L80.518 32.3621L79.748 32.6779L79.8467 31.8291Z" fill="url(#paint14_linear_4565_60562)"/>
    <path d="M76.9982 32.6779L78.2069 31.8291V34.23L76.7314 34.1091L76.9982 32.6779Z" fill="url(#paint15_linear_4565_60562)"/>
    <path d="M70.2285 23.5349H70.9492L70.7494 22.6133L70.2285 23.5349Z" fill="url(#paint16_linear_4565_60562)"/>
    <path d="M70.0049 21.4729L71.694 22.6129V21.1743L70.9493 20.0664L70.0049 21.4729Z" fill="url(#paint17_linear_4565_60562)"/>
    <path d="M72.5898 20.5518L72.9628 22.1767L74.0072 20.5518H72.5898Z" fill="url(#paint18_linear_4565_60562)"/>
    </g>
    <g clip-path="url(#clip2_4565_60562)">
    <path d="M128.899 6.64955C131.44 6.64955 133.5 5.161 133.5 3.32478C133.5 1.48855 131.44 0 128.899 0C126.358 0 124.298 1.48855 124.298 3.32478C124.298 5.161 126.358 6.64955 128.899 6.64955Z" fill="url(#paint19_linear_4565_60562)"/>
    <path d="M129 33.1553C135.882 33.1553 141.461 27.5912 141.461 20.7276C141.461 13.8639 135.882 8.2998 129 8.2998C122.117 8.2998 116.538 13.8639 116.538 20.7276C116.538 27.5912 122.117 33.1553 129 33.1553Z" stroke="url(#paint20_linear_4565_60562)" stroke-width="2" stroke-miterlimit="10"/>
    <path d="M138.826 36.1322C138.134 35.808 137.326 35.8556 136.679 36.2601C134.448 37.6429 131.818 38.4399 129 38.4399C126.182 38.4399 123.552 37.6399 121.322 36.2601C120.672 35.8586 119.866 35.808 119.175 36.1322C112.024 39.4867 106.877 46.3831 106.012 54.5553C105.875 55.8638 106.922 56.9998 108.24 56.9998H149.761C151.079 56.9998 152.125 55.8638 151.988 54.5553C151.123 46.3831 145.977 39.4867 138.826 36.1322Z" fill="url(#paint21_linear_4565_60562)"/>
    <path d="M131.242 25.8075C131.221 25.864 131.29 25.7064 131.26 25.7689C131.239 25.8105 131.221 25.8521 131.201 25.8908C131.129 26.0306 131.042 26.1644 130.95 26.2893C130.706 26.6134 130.318 26.9316 129.912 27.1012C128.836 27.5472 127.56 27.2558 126.814 26.3666C126.719 26.2506 126.614 26.1019 126.531 25.9473C126.501 25.8938 126.477 25.8402 126.447 25.7867C126.403 25.7005 126.468 25.8402 126.453 25.8045C126.283 25.3614 125.562 25.5547 125.735 26.0008C126.608 28.261 129.844 28.7219 131.397 26.9079C131.63 26.6372 131.833 26.3369 131.964 26.0008C132.137 25.5547 131.415 25.3614 131.245 25.8045L131.242 25.8075Z" fill="url(#paint22_linear_4565_60562)"/>
    <path d="M123.546 21.8344C123.546 21.8344 123.576 21.7303 123.585 21.7303C123.585 21.7303 123.537 21.8344 123.579 21.7482C123.588 21.7273 123.597 21.7095 123.606 21.6887C123.632 21.6381 123.659 21.5846 123.689 21.537C123.722 21.4835 123.758 21.4329 123.793 21.3794C123.829 21.3259 123.749 21.427 123.811 21.3586C123.835 21.3288 123.862 21.3021 123.886 21.2723C123.937 21.2188 123.993 21.1682 124.05 21.1207C123.993 21.1682 124.068 21.1088 124.089 21.0969C124.13 21.0701 124.169 21.0463 124.214 21.0225C124.232 21.0136 124.318 20.9749 124.291 20.9868C124.268 20.9958 124.354 20.966 124.378 20.9601C124.426 20.9452 124.47 20.9363 124.518 20.9274C124.518 20.9274 124.581 20.9184 124.542 20.9214C124.503 20.9274 124.599 20.9184 124.607 20.9184C124.655 20.9184 124.703 20.9184 124.748 20.9184C124.766 20.9184 124.879 20.9303 124.822 20.9214C124.918 20.9363 125.007 20.9631 125.1 20.9928C125.034 20.969 125.147 21.0166 125.162 21.0225C125.195 21.0404 125.228 21.0582 125.261 21.079C125.293 21.0999 125.323 21.1207 125.353 21.1415C125.29 21.0939 125.392 21.1772 125.407 21.192C125.457 21.2396 125.505 21.2872 125.547 21.3378C125.571 21.3645 125.609 21.4181 125.568 21.3586C125.592 21.3913 125.612 21.421 125.636 21.4537C125.702 21.5549 125.759 21.6619 125.809 21.7719C125.842 21.8403 125.776 21.6798 125.803 21.7571C125.809 21.769 125.812 21.7838 125.818 21.7957C125.824 21.8076 125.827 21.8225 125.833 21.8344C125.976 22.2894 126.695 22.0961 126.552 21.6381C126.388 21.1088 125.991 20.5883 125.484 20.3504C125.052 20.1482 124.536 20.1066 124.086 20.2731C123.692 20.4188 123.382 20.6865 123.14 21.0255C123.009 21.2099 122.902 21.421 122.833 21.6351C122.69 22.0931 123.409 22.2894 123.552 21.8314L123.546 21.8344Z" fill="url(#paint23_linear_4565_60562)"/>
    <path d="M131.868 21.8344C131.868 21.8344 131.898 21.7303 131.907 21.7303C131.907 21.7303 131.859 21.8344 131.901 21.7482C131.91 21.7273 131.919 21.7095 131.928 21.6887C131.955 21.6381 131.981 21.5846 132.011 21.537C132.044 21.4835 132.08 21.4329 132.116 21.3794C132.151 21.3259 132.071 21.427 132.134 21.3586C132.157 21.3288 132.184 21.3021 132.208 21.2723C132.259 21.2188 132.315 21.1683 132.372 21.1207C132.315 21.1683 132.39 21.1088 132.411 21.0969C132.453 21.0701 132.491 21.0463 132.536 21.0225C132.554 21.0136 132.64 20.975 132.614 20.9868C132.59 20.9958 132.676 20.966 132.7 20.9601C132.748 20.9452 132.793 20.9363 132.84 20.9274C132.84 20.9274 132.903 20.9184 132.864 20.9214C132.825 20.9274 132.921 20.9184 132.93 20.9184C132.977 20.9184 133.025 20.9184 133.07 20.9184C133.088 20.9184 133.201 20.9303 133.144 20.9214C133.24 20.9363 133.329 20.9631 133.422 20.9928C133.356 20.969 133.469 21.0166 133.484 21.0225C133.517 21.0404 133.55 21.0582 133.583 21.079C133.616 21.0999 133.645 21.1207 133.675 21.1415C133.613 21.0939 133.714 21.1772 133.729 21.192C133.78 21.2396 133.827 21.2872 133.869 21.3378C133.893 21.3645 133.932 21.4181 133.89 21.3586C133.914 21.3913 133.935 21.421 133.959 21.4537C134.024 21.5549 134.081 21.6619 134.131 21.7719C134.164 21.8403 134.099 21.6798 134.126 21.7571C134.131 21.769 134.134 21.7838 134.14 21.7957C134.146 21.8076 134.149 21.8225 134.155 21.8344C134.298 22.2894 135.017 22.0961 134.874 21.6381C134.71 21.1088 134.313 20.5883 133.806 20.3504C133.374 20.1482 132.858 20.1066 132.408 20.2731C132.014 20.4188 131.704 20.6865 131.463 21.0255C131.331 21.2099 131.224 21.421 131.155 21.6351C131.012 22.0931 131.731 22.2894 131.874 21.8314L131.868 21.8344Z" fill="url(#paint24_linear_4565_60562)"/>
    <path d="M144.706 28.472C143.29 26.5063 143.767 21.7362 143.767 21.7362C143.782 21.7362 143.794 21.7362 143.794 21.7362C143.794 21.7362 147.002 12.2347 141.563 6.47433C139.595 4.38966 137.442 3.33988 134.138 3.33988C131.776 3.33988 130.357 4.2826 129.626 4.96659C129.268 5.29966 128.711 5.30561 128.347 4.97848C127.551 4.26475 126.489 3.27148 123.448 3.27148C120.406 3.27148 118.184 4.30341 116.133 6.47433C110.694 12.2347 113.902 21.7362 113.902 21.7362C113.902 21.7362 114.379 26.5063 112.963 28.472C111.546 30.4377 110.231 31.3031 110.231 31.3031C110.231 31.3031 114.239 34.155 118.587 33.1558C122.711 32.2072 122.711 31.4577 122.711 31.4577C122.711 31.4577 118.199 28.6296 117.397 25.2781C116.935 23.3391 116.72 22.1228 116.622 21.4418C119.783 20.8767 124.948 19.2203 127.977 14.364C128.302 13.8436 128.589 13.3499 128.851 12.8741C129.113 13.3499 129.4 13.8436 129.725 14.364C132.745 19.2084 137.892 20.8678 141.053 21.4388C140.955 22.1198 140.74 23.3361 140.278 25.281C139.479 28.6326 134.964 31.4607 134.964 31.4607C134.964 31.4607 134.964 32.2101 139.088 33.1588C143.436 34.158 147.444 31.3061 147.444 31.3061C147.444 31.3061 146.129 30.4377 144.712 28.475L144.706 28.472Z" fill="url(#paint25_linear_4565_60562)"/>
    </g>
    <defs>
    <linearGradient id="paint0_linear_4565_60562" x1="10.6859" y1="18.8569" x2="37.3152" y2="18.8569" gradientUnits="userSpaceOnUse">
    <stop stop-color="#F28D00"/>
    <stop offset="0.18" stop-color="#F39718"/>
    <stop offset="0.55" stop-color="#F6A946"/>
    <stop offset="0.83" stop-color="#F8B563"/>
    <stop offset="1" stop-color="#F9BA6E"/>
    </linearGradient>
    <linearGradient id="paint1_linear_4565_60562" x1="0.000183804" y1="45.2074" x2="48.0002" y2="45.2074" gradientUnits="userSpaceOnUse">
    <stop stop-color="#F28D00"/>
    <stop offset="1" stop-color="#F9BA6E"/>
    </linearGradient>
    <linearGradient id="paint2_linear_4565_60562" x1="9.48731" y1="13.7957" x2="16.8028" y2="13.7957" gradientUnits="userSpaceOnUse">
    <stop stop-color="#F28D00"/>
    <stop offset="0.11" stop-color="#F2920E"/>
    <stop offset="0.52" stop-color="#F6A741"/>
    <stop offset="0.83" stop-color="#F8B561"/>
    <stop offset="1" stop-color="#F9B96D"/>
    </linearGradient>
    <linearGradient id="paint3_linear_4565_60562" x1="12.0798" y1="10.9516" x2="38.454" y2="10.9516" gradientUnits="userSpaceOnUse">
    <stop offset="0.03" stop-color="#F28D00"/>
    <stop offset="0.5" stop-color="#F9B86B"/>
    <stop offset="0.58" stop-color="#F8B461"/>
    <stop offset="0.72" stop-color="#F6A946"/>
    <stop offset="0.9" stop-color="#F3971B"/>
    <stop offset="1" stop-color="#F28D00"/>
    </linearGradient>
    <linearGradient id="paint4_linear_4565_60562" x1="21.0532" y1="25.0697" x2="26.9466" y2="25.0697" gradientUnits="userSpaceOnUse">
    <stop stop-color="#F28D00"/>
    <stop offset="0.18" stop-color="#F39718"/>
    <stop offset="0.55" stop-color="#F6A946"/>
    <stop offset="0.83" stop-color="#F8B563"/>
    <stop offset="1" stop-color="#F9BA6E"/>
    </linearGradient>
    <linearGradient id="paint5_linear_4565_60562" x1="18.0162" y1="19.2719" x2="21.2958" y2="19.2719" gradientUnits="userSpaceOnUse">
    <stop stop-color="#F28D00"/>
    <stop offset="0.18" stop-color="#F39718"/>
    <stop offset="0.55" stop-color="#F6A946"/>
    <stop offset="0.83" stop-color="#F8B563"/>
    <stop offset="1" stop-color="#F9BA6E"/>
    </linearGradient>
    <linearGradient id="paint6_linear_4565_60562" x1="26.7038" y1="19.2719" x2="29.9804" y2="19.2719" gradientUnits="userSpaceOnUse">
    <stop stop-color="#F28D00"/>
    <stop offset="0.18" stop-color="#F39718"/>
    <stop offset="0.55" stop-color="#F6A946"/>
    <stop offset="0.83" stop-color="#F8B563"/>
    <stop offset="1" stop-color="#F9BA6E"/>
    </linearGradient>
    <linearGradient id="paint7_linear_4565_60562" x1="68.6171" y1="28.5694" x2="77.7279" y2="28.5694" gradientUnits="userSpaceOnUse">
    <stop stop-color="#F28D00"/>
    <stop offset="0.18" stop-color="#F39718"/>
    <stop offset="0.55" stop-color="#F6A946"/>
    <stop offset="0.83" stop-color="#F8B563"/>
    <stop offset="1" stop-color="#F9BA6E"/>
    </linearGradient>
    <linearGradient id="paint8_linear_4565_60562" x1="74.0485" y1="24.8661" x2="82.9162" y2="25.6164" gradientUnits="userSpaceOnUse">
    <stop stop-color="#F28D00"/>
    <stop offset="0.18" stop-color="#F39718"/>
    <stop offset="0.55" stop-color="#F6A946"/>
    <stop offset="0.83" stop-color="#F8B563"/>
    <stop offset="1" stop-color="#F9BA6E"/>
    </linearGradient>
    <linearGradient id="paint9_linear_4565_60562" x1="57.1955" y1="43.9057" x2="66.9654" y2="33.8939" gradientUnits="userSpaceOnUse">
    <stop stop-color="#F28D00"/>
    <stop offset="0.18" stop-color="#F39718"/>
    <stop offset="0.55" stop-color="#F6A946"/>
    <stop offset="0.83" stop-color="#F8B563"/>
    <stop offset="1" stop-color="#F9BA6E"/>
    </linearGradient>
    <linearGradient id="paint10_linear_4565_60562" x1="85.233" y1="20.8991" x2="97.3468" y2="13.7321" gradientUnits="userSpaceOnUse">
    <stop stop-color="#F28D00"/>
    <stop offset="0.18" stop-color="#F39718"/>
    <stop offset="0.55" stop-color="#F6A946"/>
    <stop offset="0.83" stop-color="#F8B563"/>
    <stop offset="1" stop-color="#F9BA6E"/>
    </linearGradient>
    <linearGradient id="paint11_linear_4565_60562" x1="63.6302" y1="32.8645" x2="73.2051" y2="32.8645" gradientUnits="userSpaceOnUse">
    <stop stop-color="#F28D00"/>
    <stop offset="0.18" stop-color="#F39718"/>
    <stop offset="0.55" stop-color="#F6A946"/>
    <stop offset="0.83" stop-color="#F8B563"/>
    <stop offset="1" stop-color="#F9BA6E"/>
    </linearGradient>
    <linearGradient id="paint12_linear_4565_60562" x1="78.3777" y1="21.8595" x2="89.5026" y2="21.8595" gradientUnits="userSpaceOnUse">
    <stop stop-color="#F28D00"/>
    <stop offset="0.18" stop-color="#F39718"/>
    <stop offset="0.55" stop-color="#F6A946"/>
    <stop offset="0.83" stop-color="#F8B563"/>
    <stop offset="1" stop-color="#F9BA6E"/>
    </linearGradient>
    <linearGradient id="paint13_linear_4565_60562" x1="80.7422" y1="31.9506" x2="82.755" y2="31.9506" gradientUnits="userSpaceOnUse">
    <stop stop-color="#F28D00"/>
    <stop offset="0.18" stop-color="#F39718"/>
    <stop offset="0.55" stop-color="#F6A946"/>
    <stop offset="0.83" stop-color="#F8B563"/>
    <stop offset="1" stop-color="#F9BA6E"/>
    </linearGradient>
    <linearGradient id="paint14_linear_4565_60562" x1="79.748" y1="32.2535" x2="80.518" y2="32.2535" gradientUnits="userSpaceOnUse">
    <stop stop-color="#F28D00"/>
    <stop offset="0.18" stop-color="#F39718"/>
    <stop offset="0.55" stop-color="#F6A946"/>
    <stop offset="0.83" stop-color="#F8B563"/>
    <stop offset="1" stop-color="#F9BA6E"/>
    </linearGradient>
    <linearGradient id="paint15_linear_4565_60562" x1="76.7314" y1="33.0296" x2="78.2069" y2="33.0296" gradientUnits="userSpaceOnUse">
    <stop stop-color="#F28D00"/>
    <stop offset="0.18" stop-color="#F39718"/>
    <stop offset="0.55" stop-color="#F6A946"/>
    <stop offset="0.83" stop-color="#F8B563"/>
    <stop offset="1" stop-color="#F9BA6E"/>
    </linearGradient>
    <linearGradient id="paint16_linear_4565_60562" x1="70.2285" y1="23.0735" x2="70.9492" y2="23.0735" gradientUnits="userSpaceOnUse">
    <stop stop-color="#F28D00"/>
    <stop offset="0.18" stop-color="#F39718"/>
    <stop offset="0.55" stop-color="#F6A946"/>
    <stop offset="0.83" stop-color="#F8B563"/>
    <stop offset="1" stop-color="#F9BA6E"/>
    </linearGradient>
    <linearGradient id="paint17_linear_4565_60562" x1="70.0049" y1="21.3397" x2="71.694" y2="21.3397" gradientUnits="userSpaceOnUse">
    <stop stop-color="#F28D00"/>
    <stop offset="0.18" stop-color="#F39718"/>
    <stop offset="0.55" stop-color="#F6A946"/>
    <stop offset="0.83" stop-color="#F8B563"/>
    <stop offset="1" stop-color="#F9BA6E"/>
    </linearGradient>
    <linearGradient id="paint18_linear_4565_60562" x1="72.5898" y1="21.3636" x2="74.0072" y2="21.3636" gradientUnits="userSpaceOnUse">
    <stop stop-color="#F28D00"/>
    <stop offset="0.18" stop-color="#F39718"/>
    <stop offset="0.55" stop-color="#F6A946"/>
    <stop offset="0.83" stop-color="#F8B563"/>
    <stop offset="1" stop-color="#F9BA6E"/>
    </linearGradient>
    <linearGradient id="paint19_linear_4565_60562" x1="128.672" y1="5.34106" x2="129.275" y2="-0.0182082" gradientUnits="userSpaceOnUse">
    <stop stop-color="#F28D00"/>
    <stop offset="0.2" stop-color="#F3930F"/>
    <stop offset="0.58" stop-color="#F5A439"/>
    <stop offset="1" stop-color="#F9BA6E"/>
    </linearGradient>
    <linearGradient id="paint20_linear_4565_60562" x1="116.24" y1="20.7276" x2="141.76" y2="20.7276" gradientUnits="userSpaceOnUse">
    <stop stop-color="#F28D00"/>
    <stop offset="0.18" stop-color="#F39718"/>
    <stop offset="0.55" stop-color="#F6A946"/>
    <stop offset="0.83" stop-color="#F8B563"/>
    <stop offset="1" stop-color="#F9BA6E"/>
    </linearGradient>
    <linearGradient id="paint21_linear_4565_60562" x1="106" y1="46.4604" x2="152" y2="46.4604" gradientUnits="userSpaceOnUse">
    <stop stop-color="#F28D00"/>
    <stop offset="1" stop-color="#F9BA6E"/>
    </linearGradient>
    <linearGradient id="paint22_linear_4565_60562" x1="126.021" y1="26.7948" x2="131.672" y2="26.7948" gradientUnits="userSpaceOnUse">
    <stop stop-color="#F28D00"/>
    <stop offset="0.18" stop-color="#F39718"/>
    <stop offset="0.55" stop-color="#F6A946"/>
    <stop offset="0.83" stop-color="#F8B563"/>
    <stop offset="1" stop-color="#F9BA6E"/>
    </linearGradient>
    <linearGradient id="paint23_linear_4565_60562" x1="123.114" y1="21.1326" x2="126.257" y2="21.1326" gradientUnits="userSpaceOnUse">
    <stop stop-color="#F28D00"/>
    <stop offset="0.18" stop-color="#F39718"/>
    <stop offset="0.55" stop-color="#F6A946"/>
    <stop offset="0.83" stop-color="#F8B563"/>
    <stop offset="1" stop-color="#F9BA6E"/>
    </linearGradient>
    <linearGradient id="paint24_linear_4565_60562" x1="131.436" y1="21.1326" x2="134.579" y2="21.1326" gradientUnits="userSpaceOnUse">
    <stop stop-color="#F28D00"/>
    <stop offset="0.18" stop-color="#F39718"/>
    <stop offset="0.55" stop-color="#F6A946"/>
    <stop offset="0.83" stop-color="#F8B563"/>
    <stop offset="1" stop-color="#F9BA6E"/>
    </linearGradient>
    <linearGradient id="paint25_linear_4565_60562" x1="110.228" y1="18.3222" x2="147.441" y2="18.3222" gradientUnits="userSpaceOnUse">
    <stop stop-color="#F28D00"/>
    <stop offset="0.18" stop-color="#F39718"/>
    <stop offset="0.55" stop-color="#F6A946"/>
    <stop offset="0.83" stop-color="#F8B563"/>
    <stop offset="1" stop-color="#F9BA6E"/>
    </linearGradient>
    <clipPath id="clip0_4565_60562">
    <rect width="48" height="55" fill="white" transform="translate(0 1)"/>
    </clipPath>
    <clipPath id="clip1_4565_60562">
    <rect width="42" height="33" fill="white" transform="translate(56 12)"/>
    </clipPath>
    <clipPath id="clip2_4565_60562">
    <rect width="46" height="57" fill="white" transform="translate(106)"/>
    </clipPath>
    </defs>
    </svg>
    