<svg xmlns="http://www.w3.org/2000/svg" fill="none" viewBox="0 11.15 196.39 166.77"><path d="M141.069 29C140.163 31.8796 139.696 34.8976 139.701 37.9521C139.711 43.826 141.461 49.5708 144.732 54.46C148.004 59.3491 152.648 63.1634 158.078 65.4199C163.508 67.6765 169.481 68.2734 175.24 67.1367C176.033 66.9802 176.817 66.7907 177.59 66.5713V119.17C177.59 133.51 164.8 145.14 149.02 145.14H113.31L89.5391 177.92L67.8896 145.14H28.5693C12.7894 145.14 0 133.51 0 119.14V55C0 40.6601 12.7894 29.0001 28.5693 29H141.069ZM58.4893 95.9492C57.4015 95.9494 56.5197 96.8312 56.5195 97.9189V98.6094C56.5196 99.6972 57.4014 100.579 58.4893 100.579H123.609C124.697 100.579 125.579 99.6973 125.579 98.6094V97.9189C125.579 96.8311 124.697 95.9492 123.609 95.9492H58.4893ZM37.2295 77.5C36.0863 77.5 35.1592 78.4271 35.1592 79.5703V80.0596C35.1592 81.2028 36.0863 82.1299 37.2295 82.1299H144.869C146.012 82.1299 146.939 81.2028 146.939 80.0596V79.5703C146.939 78.4271 146.012 77.5 144.869 77.5H37.2295Z" fill="#000"></path><path d="M188.477 19.0667C184.706 15.2957 179.905 12.724 174.681 11.6768C169.457 10.6297 164.045 11.1541 159.129 13.1838C154.213 15.2134 150.015 18.6572 147.064 23.0796C144.113 27.502 142.542 32.7044 142.551 38.0289C142.559 43.3533 144.146 48.5608 147.112 52.9927C150.077 57.4246 154.287 60.8819 159.209 62.9274C164.132 64.9729 169.546 65.5148 174.766 64.4844C179.987 63.4541 184.779 60.8978 188.538 57.1389C193.579 52.0983 196.404 45.2554 196.393 38.1155C196.381 30.9756 193.534 24.1235 188.477 19.0667ZM171.466 53.6821C171.466 53.9288 171.418 54.173 171.324 54.4008C171.23 54.6286 171.092 54.8355 170.918 55.0096C170.744 55.1838 170.537 55.3218 170.309 55.4157C170.082 55.5097 169.837 55.5577 169.591 55.5571L169.432 55.5568C169.185 55.5567 168.941 55.5078 168.712 55.4132C168.484 55.3185 168.277 55.1798 168.102 55.0051C167.928 54.8304 167.789 54.6231 167.694 54.395C167.6 54.1669 167.551 53.9225 167.551 53.6758L167.529 40.038L153.891 40.0161C153.644 40.0159 153.4 39.967 153.172 39.8724C152.944 39.7777 152.736 39.639 152.561 39.4643C152.387 39.2896 152.248 39.0823 152.153 38.8542C152.059 38.6261 152.01 38.3817 152.01 38.135L152.007 37.973C152.006 37.4752 152.204 36.9982 152.555 36.6467C152.907 36.2952 153.384 36.0979 153.882 36.098L167.519 36.12L167.498 22.4822C167.497 21.9849 167.694 21.5085 168.045 21.1575C168.396 20.8064 168.872 20.6095 169.37 20.61L169.534 20.6103C170.032 20.6117 170.51 20.8105 170.863 21.1632C171.215 21.5158 171.414 21.9934 171.416 22.4913L171.437 36.1291L185.075 36.1511C185.573 36.1525 186.051 36.3513 186.403 36.704C186.756 37.0566 186.955 37.5342 186.956 38.0321L186.954 38.1941C186.955 38.4406 186.908 38.6847 186.814 38.9125C186.72 39.1403 186.583 39.3471 186.409 39.5211C186.235 39.6952 186.028 39.8329 185.8 39.9265C185.572 40.02 185.328 40.0675 185.082 40.0662L171.444 40.0443L171.466 53.6821Z" fill="#000"></path></svg>