<svg width="258" height="258" viewBox="0 0 258 258" fill="none" xmlns="http://www.w3.org/2000/svg">
  <path d="M141.899 90.3013V162.541L158.669 145.771C159.972 144.361 161.573 143.259 163.356 142.547C165.138 141.835 167.058 141.529 168.973 141.653C170.889 141.776 172.753 142.326 174.43 143.261C176.106 144.197 177.553 145.495 178.664 147.061C180.257 149.83 180.869 153.056 180.401 156.217C179.933 159.377 178.411 162.287 176.084 164.476L138.029 202.53C136.881 203.782 135.485 204.781 133.931 205.464C132.377 206.147 130.697 206.5 128.999 206.5C127.301 206.5 125.621 206.147 124.067 205.464C122.513 204.781 121.117 203.782 119.969 202.53L81.9143 164.476C79.5865 162.287 78.0654 159.377 77.5972 156.217C77.129 153.056 77.741 149.83 79.3344 147.061C80.4453 145.495 81.8917 144.197 83.5681 143.261C85.2445 142.326 87.1086 141.776 89.0245 141.653C90.9403 141.529 92.8596 141.835 94.6423 142.547C96.425 143.259 98.0263 144.361 99.3292 145.771L116.099 162.541V90.3013H0V232.2C0 239.043 2.71818 245.605 7.55658 250.443C12.395 255.282 18.9573 258 25.7998 258H232.198C239.041 258 245.603 255.282 250.441 250.443C255.28 245.605 257.998 239.043 257.998 232.2V90.3013H141.899Z" fill="#000"/>
  <path d="M257.353 64.5016H0.645142C1.17576 60.5174 2.73148 56.7393 5.16011 53.5367L37.4099 10.322C39.7771 7.07968 42.8859 4.45101 46.4766 2.65566C50.0673 0.860319 54.0355 -0.049553 58.0497 0.00208109H199.949C203.963 -0.049553 207.931 0.860319 211.522 2.65566C215.112 4.45101 218.221 7.07968 220.588 10.322L252.838 53.5367C255.267 56.7393 256.823 60.5174 257.353 64.5016Z" fill="#000"/>
</svg>
  