<svg xmlns="http://www.w3.org/2000/svg" width="32" height="32" fill="none" viewBox="0 0 186.73 185.66">
  <path
    d="M124.51 3.24001V21.23C124.51 23.0194 125.96 24.47 127.75 24.47H137.92C139.709 24.47 141.16 23.0194 141.16 21.23V3.24001C141.16 1.4506 139.709 0 137.92 0H127.75C125.96 0 124.51 1.4506 124.51 3.24001Z"
  />
  <path
    d="M40.5703 3.24001V21.23C40.5703 23.0194 42.0209 24.47 43.8103 24.47H53.9803C55.7697 24.47 57.2203 23.0194 57.2203 21.23V3.24001C57.2203 1.4506 55.7697 0 53.9803 0H43.8103C42.0209 0 40.5703 1.4506 40.5703 3.24001Z"
  />
  <path
    d="M149.05 20.3606H31.56C23.1898 20.3606 15.1624 23.6857 9.24371 29.6043C3.32506 35.523 0 43.5504 0 51.9206V142.041C-2.08159e-07 146.185 0.816396 150.288 2.40256 154.117C3.98872 157.945 6.31357 161.424 9.24432 164.353C12.1751 167.283 15.6543 169.607 19.4833 171.192C23.3122 172.777 27.416 173.592 31.56 173.591H107.56C104.914 170.383 102.698 166.843 100.97 163.061H34.88C28.6421 163.061 22.6597 160.583 18.2488 156.172C13.838 151.761 11.36 145.779 11.36 139.541V89.2406C11.36 86.1524 11.9684 83.0944 13.1506 80.2414C14.3327 77.3884 16.0653 74.7962 18.2495 72.613C20.4336 70.4298 23.0265 68.6982 25.88 67.5173C28.7336 66.3364 31.7918 65.7293 34.88 65.7306H145.73C151.965 65.7306 157.945 68.2076 162.354 72.6165C166.763 77.0255 169.24 83.0054 169.24 89.2406V102.911C173.519 105.563 177.353 108.873 180.6 112.721V51.9206C180.6 43.5521 177.276 35.5262 171.36 29.6079C165.443 23.6895 157.419 20.3633 149.05 20.3606Z"
  />
  <path
    d="M144.209 100.62C135.8 100.62 127.579 103.114 120.587 107.786C113.594 112.458 108.144 119.099 104.926 126.869C101.708 134.638 100.866 143.188 102.506 151.436C104.147 159.684 108.197 167.26 114.143 173.207C120.09 179.153 127.666 183.203 135.914 184.843C144.162 186.484 152.712 185.642 160.481 182.424C168.251 179.205 174.891 173.756 179.564 166.763C184.236 159.771 186.729 151.55 186.729 143.14C186.729 131.863 182.25 121.048 174.276 113.074C166.302 105.1 155.486 100.62 144.209 100.62ZM144.209 179.53C137.012 179.53 129.977 177.396 123.992 173.398C118.008 169.399 113.344 163.716 110.589 157.066C107.835 150.417 107.115 143.1 108.519 136.041C109.923 128.982 113.389 122.498 118.478 117.409C123.567 112.32 130.051 108.854 137.11 107.45C144.169 106.045 151.486 106.766 158.135 109.52C164.785 112.275 170.468 116.939 174.467 122.923C178.465 128.907 180.599 135.943 180.599 143.14C180.599 147.919 179.658 152.651 177.829 157.066C176.001 161.481 173.32 165.493 169.941 168.872C166.562 172.251 162.55 174.932 158.135 176.76C153.72 178.589 148.988 179.53 144.209 179.53Z"
  />
  <path
    d="M69.0604 80.6106H36.1904C31.4739 80.6106 27.6504 84.4341 27.6504 89.1506V100.321C27.6504 105.037 31.4739 108.861 36.1904 108.861H69.0604C73.7769 108.861 77.6004 105.037 77.6004 100.321V89.1506C77.6004 84.4341 73.7769 80.6106 69.0604 80.6106Z"
  />
  <path
    d="M174.037 113.172C168.117 107.252 160.574 103.22 152.363 101.587C144.152 99.9532 135.64 100.791 127.905 103.995C120.17 107.199 113.559 112.625 108.908 119.586C104.256 126.548 101.774 134.732 101.774 143.104C101.774 151.476 104.256 159.661 108.908 166.622C113.559 173.583 120.17 179.009 127.905 182.213C135.64 185.417 144.152 186.255 152.363 184.622C160.574 182.988 168.117 178.957 174.037 173.036C181.976 165.098 186.435 154.331 186.435 143.104C186.435 131.877 181.976 121.11 174.037 113.172ZM147.201 167.644C147.201 168.032 147.125 168.416 146.977 168.775C146.828 169.133 146.611 169.459 146.336 169.733C146.062 170.007 145.736 170.225 145.378 170.373C145.02 170.521 144.635 170.598 144.248 170.597L143.997 170.597C143.61 170.598 143.225 170.521 142.867 170.373C142.509 170.225 142.183 170.007 141.909 169.733C141.634 169.459 141.417 169.133 141.268 168.775C141.12 168.416 141.044 168.032 141.044 167.644L141.044 146.2L119.6 146.2C119.212 146.2 118.828 146.124 118.47 145.976C118.111 145.828 117.786 145.61 117.511 145.336C117.237 145.062 117.02 144.736 116.871 144.377C116.723 144.019 116.647 143.635 116.647 143.247L116.643 142.992C116.644 142.209 116.955 141.459 117.509 140.905C118.062 140.352 118.813 140.04 119.596 140.039L141.04 140.039V118.595C141.04 117.813 141.351 117.064 141.904 116.511C142.457 115.958 143.207 115.647 143.988 115.647H144.248C145.03 115.648 145.781 115.959 146.335 116.513C146.888 117.066 147.2 117.817 147.201 118.6L147.201 140.044L168.645 140.044C169.428 140.045 170.178 140.356 170.732 140.91C171.285 141.463 171.597 142.214 171.598 142.997L171.593 143.251C171.595 143.639 171.519 144.023 171.372 144.381C171.224 144.74 171.007 145.065 170.733 145.34C170.459 145.614 170.133 145.831 169.775 145.978C169.416 146.126 169.032 146.201 168.645 146.2L147.201 146.2V167.644Z"
  />
</svg> 