<svg xmlns="http://www.w3.org/2000/svg" width="32" height="32" fill="none" viewBox="0 0 48 48">
  <path
    d="M45.219 15.5676L46.3124 6.90153L46.7426 3.44979L46.7996 2.99853C46.8515 2.58866 46.9033 2.17904 46.9535 1.76898L46.9558 1.74515C47.0121 1.4956 47.0027 1.23783 46.9287 0.997448C46.8547 0.757065 46.7186 0.542443 46.5339 0.374911C46.3492 0.207379 46.1223 0.0927695 45.8759 0.0424746C45.6294 -0.00781961 45.372 0.00795244 45.1291 0.0882212L33.0442 2.62019C32.8708 2.65657 32.6967 2.69121 32.5227 2.72585C32.1371 2.80256 31.751 2.8794 31.3717 2.97526L31.3482 2.9799C31.0021 3.05312 30.6315 3.4255 30.4767 3.7281C30.3875 3.90024 30.3324 4.08719 30.3147 4.27826C30.2969 4.46933 30.3167 4.66076 30.3731 4.84162C30.4294 5.02247 30.5211 5.1892 30.643 5.33225C30.7648 5.47531 30.9144 5.5919 31.0832 5.67534L31.4354 5.79528C31.6782 5.84254 31.9311 5.82591 32.1699 5.74696L33.5362 5.46145L36.8291 4.76606L40.8125 3.93052L41.6967 3.74604L26.265 20.7589C25.7885 21.2842 25.828 22.0963 26.3534 22.5729C26.8787 23.0494 27.6909 23.0098 28.1674 22.4845L43.5846 5.48755L43.0337 9.86318L42.6045 13.3138C42.5799 13.5097 42.5549 13.7054 42.53 13.9009C42.4836 14.2651 42.4372 14.629 42.3926 14.9937L42.3893 15.0186C42.3168 15.3924 42.3804 15.7754 42.5684 16.0972C42.7744 16.4227 43.103 16.649 43.4827 16.7269C43.853 16.7991 44.2417 16.7218 44.5654 16.5115C44.871 16.2937 45.1748 15.9545 45.2253 15.5713L45.219 15.5676Z"
    fill="#000"
  />
  <path
    d="M12.4893 0.170449H2.17945C1.83821 0.166158 1.50538 0.275809 1.23428 0.481845C0.963173 0.687881 0.769466 0.978385 0.684176 1.30683C-0.275824 5.15551 -2.15801 18.1762 10.9649 33.01C24.2187 47.9912 40.8674 47.5025 45.6936 46.9936C46.0686 46.955 46.4159 46.7796 46.6684 46.5014C46.9209 46.2232 47.0607 45.8618 47.0609 45.4871V35.3955C47.0582 35.0687 46.9495 34.7514 46.7508 34.4909C46.5522 34.2304 46.2742 34.0406 45.9584 33.9497L34.3656 30.6389C34.0686 30.5539 33.7527 30.5607 33.4597 30.6583C33.1667 30.7559 32.9104 30.9397 32.7249 31.1854L29.586 35.3319C29.3626 35.6284 29.0375 35.8332 28.6723 35.9073C28.3072 35.9814 27.9273 35.9196 27.6049 35.7338C25.6558 34.6119 21.6704 32.1656 18.2958 29.2741C14.8049 26.2639 12.5271 21.863 11.6049 19.8389C11.4669 19.5356 11.4334 19.1955 11.5097 18.8713C11.586 18.5472 11.7677 18.2571 12.0267 18.0461L16.498 14.4201C16.7218 14.2356 16.8883 13.9917 16.9779 13.7167C17.0675 13.4418 17.0766 13.1472 17.0042 12.8673L13.9642 1.30105C13.8791 0.976808 13.6881 0.689837 13.4211 0.4852C13.1542 0.280564 12.8264 0.169852 12.4893 0.170449Z"
    fill="#000"
  />
</svg> 