<svg width="54" height="54" viewBox="0 0 54 54" fill="none" xmlns="http://www.w3.org/2000/svg">
<path d="M26.9987 0.332031C41.7267 0.332031 53.6654 12.2707 53.6654 26.9987C53.6654 41.7267 41.7267 53.6654 26.9987 53.6654C12.2707 53.6654 0.332031 41.7267 0.332031 26.9987H5.66536C5.66536 38.78 15.2174 48.332 26.9987 48.332C38.78 48.332 48.332 38.78 48.332 26.9987C48.332 15.2174 38.78 5.66536 26.9987 5.66536C19.6654 5.66536 13.196 9.36403 9.3587 14.9987H16.332V20.332H0.332031V4.33203H5.66536V10.9987C10.5294 4.5187 18.276 0.332031 26.9987 0.332031ZM29.6654 13.6654V25.892L38.3134 34.54L34.54 38.3134L24.332 28.1V13.6654H29.6654Z" fill="#000"/>
</svg>
