<svg xmlns="http://www.w3.org/2000/svg" width="32" height="32" fill="none" viewBox="0 0 61.26 60">
  <path
    d="M48 33V54H6V12H21.06C21.21 9.87 21.72 7.86 22.5 6H6C2.7 6 0 8.7 0 12V54C0 57.3 2.7 60 6 60H48C51.3 60 54 57.3 54 54V39L48 33ZM43.5 48H10.5L18.75 37.41L24.63 44.49L32.88 33.87L43.5 48ZM51.9 20.67C53.22 18.57 54 16.14 54 13.5C54 6.03 47.97 0 40.5 0C33.03 0 27 6.03 27 13.5C27 20.97 33.03 27 40.47 27C43.11 27 45.57 26.22 47.64 24.9L57 34.26L61.26 30L51.9 20.67ZM40.5 21C36.36 21 33 17.64 33 13.5C33 9.36 36.36 6 40.5 6C44.64 6 48 9.36 48 13.5C48 17.64 44.64 21 40.5 21Z"
    fill="#000"
  />
</svg> 