<svg xmlns="http://www.w3.org/2000/svg" width="32" height="32" fill="none" viewBox="-0.06 -0.07 28.12 30.14">
  <g clip-path="url(#clip0_5366_66554)">
    <path
      d="M14.3524 13.2064C14.2126 13.4142 13.9177 13.4219 13.7702 13.2218C13.1957 12.4599 11.9071 11.1208 10.7117 12.306C9.19796 13.8067 12.8309 17.601 13.8323 18.5938C13.972 18.7324 14.1894 18.7324 14.3369 18.6015C15.3926 17.6241 19.2817 13.8221 17.4497 12.306C16.0291 11.1285 14.8647 12.4445 14.3601 13.2064H14.3524Z"
      stroke="currentColor"
      fill="currentColor"
      stroke-width="0.62"
      stroke-miterlimit="10"
    ></path>
    <path
      d="M13.9965 3.41602C14.9668 3.41602 15.7586 4.20103 15.7586 5.16307V6.27902C15.7586 6.45604 15.6189 6.59457 15.4404 6.59457H12.5526C12.3741 6.59457 12.2344 6.45604 12.2344 6.27902V5.16307C12.2344 4.20103 13.0262 3.41602 13.9965 3.41602V3.41602Z"
      stroke="currentColor"
      fill="currentColor"
      stroke-width="0.57"
      stroke-miterlimit="10"
    ></path>
    <path
      d="M13.9957 2.77805C14.7031 2.77805 15.2765 2.2095 15.2765 1.50816C15.2765 0.806827 14.7031 0.238281 13.9957 0.238281C13.2883 0.238281 12.7148 0.806827 12.7148 1.50816C12.7148 2.2095 13.2883 2.77805 13.9957 2.77805Z"
      stroke="currentColor"
      fill="currentColor"
      stroke-width="0.62"
      stroke-miterlimit="10"
    ></path>
    <path
      d="M13.9965 26.6055C14.9668 26.6055 15.7586 27.3905 15.7586 28.3525V29.4685C15.7586 29.6455 15.6189 29.784 15.4404 29.784H12.5526C12.3741 29.784 12.2344 29.6455 12.2344 29.4685V28.3525C12.2344 27.3905 13.0262 26.6055 13.9965 26.6055Z"
      stroke="currentColor"
      fill="currentColor"
      stroke-width="0.57"
      stroke-miterlimit="10"
    ></path>
    <path
      d="M13.9957 25.9675C14.7031 25.9675 15.2765 25.399 15.2765 24.6976C15.2765 23.9963 14.7031 23.4277 13.9957 23.4277C13.2883 23.4277 12.7148 23.9963 12.7148 24.6976C12.7148 25.399 13.2883 25.9675 13.9957 25.9675Z"
      stroke="currentColor"
      fill="currentColor"
      stroke-width="0.62"
      stroke-miterlimit="10"
    ></path>
    <path
      d="M1.97898 14.5371C2.94931 14.5371 3.74111 15.3221 3.74111 16.2842V17.3924C3.74111 17.5694 3.60138 17.708 3.42283 17.708H0.542879C0.364338 17.708 0.224609 17.5694 0.224609 17.3924V16.2842C0.224609 15.3221 1.0164 14.5371 1.98674 14.5371H1.97898Z"
      stroke="currentColor"
      fill="currentColor"
      stroke-width="0.57"
      stroke-miterlimit="10"
    ></path>
    <path
      d="M1.97811 13.8991C2.6855 13.8991 3.25895 13.3306 3.25895 12.6293C3.25895 11.9279 2.6855 11.3594 1.97811 11.3594C1.27072 11.3594 0.697266 11.9279 0.697266 12.6293C0.697266 13.3306 1.27072 13.8991 1.97811 13.8991Z"
      stroke="currentColor"
      fill="currentColor"
      stroke-width="0.62"
      stroke-miterlimit="10"
    ></path>
    <path
      d="M26.0121 14.5371C26.9824 14.5371 27.7742 15.3221 27.7742 16.2842V17.3924C27.7742 17.5694 27.6267 17.7157 27.4482 17.7157H24.5682C24.3897 17.7157 24.2422 17.5694 24.2422 17.3924V16.2842C24.2422 15.3221 25.034 14.5371 26.0043 14.5371H26.0121Z"
      stroke="currentColor"
      fill="currentColor"
      stroke-width="0.57"
      stroke-miterlimit="10"
    ></path>
    <path
      d="M26.0113 13.8991C26.7187 13.8991 27.2922 13.3306 27.2922 12.6293C27.2922 11.9279 26.7187 11.3594 26.0113 11.3594C25.3039 11.3594 24.7305 11.9279 24.7305 12.6293C24.7305 13.3306 25.3039 13.8991 26.0113 13.8991Z"
      stroke="currentColor"
      fill="currentColor"
      stroke-width="0.62"
      stroke-miterlimit="10"
    ></path>
    <path
      d="M19.2051 3.69336C21.7124 4.72466 23.8006 6.55637 25.1358 8.87294"
      stroke="currentColor"
      fill="currentColor"
      stroke-width="0.62"
      stroke-linecap="round"
      stroke-linejoin="round"
    ></path>
    <path
      d="M19.6858 5.31797L18.8086 3.41699L20.6484 3.09375"
      stroke="currentColor"
      fill="currentColor"
      stroke-width="0.62"
      stroke-linecap="round"
      stroke-linejoin="round"
    ></path>
    <path
      d="M3.75781 8.19678C5.28706 5.97257 7.53048 4.33326 10.0922 3.50977"
      stroke="currentColor"
      fill="currentColor"
      stroke-width="0.62"
      stroke-linecap="round"
      stroke-linejoin="round"
    ></path>
    <path
      d="M5.46531 8.06685L3.4082 8.52093L3.4703 6.67383"
      stroke="currentColor"
      fill="currentColor"
      stroke-width="0.62"
      stroke-linecap="round"
      stroke-linejoin="round"
    ></path>
    <path
      d="M9.33889 25.7518C6.83155 24.7205 4.74338 22.8888 3.4082 20.5723"
      stroke="currentColor"
      fill="currentColor"
      stroke-width="0.62"
      stroke-linecap="round"
      stroke-linejoin="round"
    ></path>
    <path
      d="M8.8571 24.1211L9.73429 26.0221L7.89453 26.3453"
      stroke="currentColor"
      fill="currentColor"
      stroke-width="0.62"
      stroke-linecap="round"
      stroke-linejoin="round"
    ></path>
    <path
      d="M24.7855 21.248C23.2563 23.4723 21.0129 25.1116 18.4512 25.9351"
      stroke="currentColor"
      fill="currentColor"
      stroke-width="0.62"
      stroke-linecap="round"
      stroke-linejoin="round"
    ></path>
    <path
      d="M23.0781 21.372L25.1352 20.918L25.0731 22.7651"
      stroke="currentColor"
      fill="currentColor"
      stroke-width="0.62"
      stroke-linecap="round"
      stroke-linejoin="round"
    ></path>
  </g>
  <defs>
    <clipPath id="clip0_5366_66554">
      <rect width="28" height="30" fill="white"></rect>
    </clipPath>
  </defs>
</svg> 