<svg xmlns="http://www.w3.org/2000/svg" width="32" height="32" viewBox="0 0 32 32" fill="none">
  <path d="M16.7972 29.0582C19.2766 26.9174 26.6602 19.9858 26.6602 13.3301C26.6602 10.5018 25.5366 7.78935 23.5367 5.78945C21.5368 3.78955 18.8244 2.66602 15.9961 2.66602C13.1678 2.66602 10.4554 3.78955 8.45546 5.78945C6.45556 7.78935 5.33203 10.5018 5.33203 13.3301C5.33203 19.9858 12.7156 26.9174 15.195 29.0582C15.4259 29.2319 15.7071 29.3258 15.9961 29.3258C16.2851 29.3258 16.5663 29.2319 16.7972 29.0582Z" stroke="#000" stroke-width="2.66602" stroke-linecap="round" stroke-linejoin="round"/>
  <path d="M15.9961 17.3291C18.2047 17.3291 19.9951 15.5387 19.9951 13.3301C19.9951 11.1215 18.2047 9.33105 15.9961 9.33105C13.7875 9.33105 11.9971 11.1215 11.9971 13.3301C11.9971 15.5387 13.7875 17.3291 15.9961 17.3291Z" stroke="#000" stroke-width="2.66602" stroke-linecap="round" stroke-linejoin="round"/>
</svg>
