<svg xmlns="http://www.w3.org/2000/svg" width="32" height="32" fill="none" viewBox="169.136 158.287 177.59 148.92">
  <path
    d="M 318.156 274.427 L 282.446 274.427 L 258.676 307.207 L 237.026 274.427 L 197.706 274.427 C 181.926 274.427 169.136 262.797 169.136 248.427 L 169.136 184.287 C 169.136 169.947 181.926 158.287 197.706 158.287 L 318.156 158.287 C 333.936 158.287 346.726 169.907 346.726 184.287 L 346.726 248.457 C 346.726 262.797 333.936 274.427 318.156 274.427 Z M 292.746 225.236 L 227.626 225.236 C 226.538 225.236 225.656 226.118 225.656 227.206 L 225.656 227.896 C 225.656 228.984 226.538 229.866 227.626 229.866 L 292.746 229.866 C 293.834 229.866 294.716 228.984 294.716 227.896 L 294.716 227.206 C 294.716 226.118 293.834 225.236 292.746 225.236 Z M 314.006 206.787 L 206.366 206.787 C 205.223 206.787 204.296 207.714 204.296 208.857 L 204.296 209.347 C 204.296 210.49 205.223 211.417 206.366 211.417 L 314.006 211.417 C 315.149 211.417 316.076 210.49 316.076 209.347 L 316.076 208.857 C 316.076 207.714 315.149 206.787 314.006 206.787 Z"
    fill="currentColor"
  />
</svg> 