<svg width="149" height="173" viewBox="0 0 149 173" fill="none" xmlns="http://www.w3.org/2000/svg">
<path d="M80.3841 106.454V123.243C73.1087 120.673 65.3223 119.884 57.6789 120.944C50.0354 122.004 42.7579 124.881 36.4577 129.334C30.1574 133.787 25.0183 139.685 21.4719 146.534C17.9255 153.383 16.0754 160.983 16.0768 168.694L2.07758e-06 168.686C-0.00249283 158.877 2.24208 149.197 6.56175 140.389C10.8814 131.581 17.1615 123.877 24.9208 117.869C32.6801 111.861 41.7127 107.708 51.3265 105.728C60.9403 103.748 70.88 103.994 80.3841 106.446V106.454ZM64.3073 96.3967C37.66 96.3967 16.0768 74.828 16.0768 48.1984C16.0768 21.5688 37.66 0 64.3073 0C90.9546 0 112.538 21.5688 112.538 48.1984C112.538 74.828 90.9546 96.3967 64.3073 96.3967ZM64.3073 80.3306C82.0722 80.3306 96.4609 65.9514 96.4609 48.1984C96.4609 30.4453 82.0722 16.0661 64.3073 16.0661C46.5424 16.0661 32.1537 30.4453 32.1537 48.1984C32.1537 65.9514 46.5424 80.3306 64.3073 80.3306ZM120.576 133.236L137.626 116.19L149 127.557L131.942 144.595L149 161.633L137.626 173L120.576 155.954L103.527 173L92.1524 161.633L109.21 144.595L92.1524 127.557L103.527 116.19L120.576 133.236Z" fill="#000"/>
</svg>
