<svg width="274" height="275" viewBox="0 0 274 275" fill="none" xmlns="http://www.w3.org/2000/svg">
  <path d="M242.978 51.4244V51.052H242.713C229.94 35.2616 213.816 22.5301 195.518 13.7854C177.221 5.04064 157.209 0.50293 136.943 0.50293C116.676 0.50293 96.6648 5.04064 78.3671 13.7854C60.0693 22.5301 43.946 35.2616 31.1722 51.052H30.9204V51.4244C11.2179 75.7549 0.462646 106.151 0.462646 137.503C0.462646 168.855 11.2179 199.251 30.9204 223.581V223.954H31.1855C43.9593 239.744 60.0825 252.476 78.3803 261.22C96.6781 269.965 116.689 274.503 136.956 274.503C157.223 274.503 177.234 269.965 195.532 261.22C213.83 252.476 229.953 239.744 242.727 223.954H243.005V223.581C262.707 199.251 273.463 168.855 273.463 137.503C273.463 106.151 262.707 75.7549 243.005 51.4244H242.978ZM143.569 51.052V14.7693C151.422 18.0769 158.485 23.0223 164.288 29.2777C170.092 35.533 174.504 42.9552 177.231 51.052H143.569ZM182.466 64.3522C189.561 85.8185 193.372 108.24 193.771 130.853H143.569V64.3522H182.466ZM130.316 14.7693V51.052H96.6543C99.3819 42.9552 103.794 35.533 109.597 29.2777C115.401 23.0223 122.463 18.0769 130.316 14.7693ZM130.316 64.3522V130.853H80.1148C80.5132 108.24 84.3247 85.8185 91.4194 64.3522H130.316ZM66.8752 130.853H14.0364C15.2922 106.83 23.5502 83.7065 37.7854 64.3522H77.3317C70.7296 85.9115 67.2179 108.301 66.8752 130.853ZM66.8752 144.153C67.2136 166.704 70.734 189.094 77.3317 210.654H37.7854C23.5502 191.299 15.2922 168.176 14.0364 144.153H66.8752ZM80.128 144.153H130.316V210.654H91.4194C84.3247 189.187 80.5132 166.766 80.1148 144.153H80.128ZM130.316 223.954V260.237C122.463 256.929 115.401 251.983 109.597 245.728C103.794 239.473 99.3819 232.051 96.6543 223.954H130.316ZM143.569 260.237V223.954H177.231C174.504 232.051 170.092 239.473 164.288 245.728C158.485 251.983 151.422 256.929 143.569 260.237ZM143.569 210.654V144.153H193.771C193.372 166.766 189.561 189.187 182.466 210.654H143.569ZM207.01 144.153H259.849C258.593 168.176 250.335 191.299 236.1 210.654H196.554C203.156 189.094 206.668 166.705 207.01 144.153ZM207.01 130.853C206.672 108.302 203.151 85.9122 196.554 64.3522H236.1C250.335 83.7065 258.593 106.83 259.849 130.853H207.01ZM224.928 51.052H191.783C187.211 39.4378 180.758 28.6614 172.686 19.1583C192.491 25.2197 210.458 36.1881 224.928 51.052ZM101.2 19.1583C93.1321 28.6624 86.6839 39.4387 82.116 51.052H48.9442C63.4144 36.1881 81.3808 25.2197 101.187 19.1583H101.2ZM48.9575 223.954H82.1027C86.6747 235.568 93.1274 246.344 101.2 255.848C81.3941 249.786 63.4277 238.818 48.9575 223.954ZM172.686 255.848C180.753 246.343 187.202 235.567 191.77 223.954H224.928C210.458 238.818 192.491 249.786 172.686 255.848Z" fill="#000"/>
</svg>
    
    